bgm8:
	TEMPO 5
	LOOP_START
	UNK_EFFECT 4
	DUTY 1
	LENGTH 1
	EFFECT 0
	LENGTH 5
	NOTE_E5
	LENGTH 2
	NOTE_E5
	NOTE_DSHARP5
	NOTE_B4
	NOTE_GSHARP4
	NOTE_C5
	LENGTH 5
	NOTE_CSHARP5
	LENGTH 2
	NOTE_CSHARP5
	NOTE_B4
	NOTE_GSHARP4
	NOTE_E4
	NOTE_F4
	NOTE_FSHARP4
	NOTE_GSHARP4
	NOTE_A4
	NOTE_B4
	NOTE_CSHARP5
	NOTE_DSHARP5
	NOTE_E5
	NOTE_FSHARP5
	LENGTH 1
	NOTE_CSHARP5
	NOTE_REST
	NOTE_C5
	NOTE_REST
	NOTE_B4
	NOTE_REST
	NOTE_CSHARP5
	NOTE_REST
	LENGTH 6
	NOTE_B4
	LENGTH 5
	NOTE_E5
	LENGTH 2
	NOTE_E5
	NOTE_DSHARP5
	NOTE_B4
	NOTE_GSHARP4
	NOTE_C5
	LENGTH 5
	NOTE_CSHARP5
	LENGTH 2
	NOTE_CSHARP5
	NOTE_B4
	NOTE_GSHARP4
	LENGTH 4
	NOTE_E4
	LENGTH 5
	NOTE_FSHARP4
	LENGTH 1
	NOTE_GSHARP4
	NOTE_REST
	NOTE_A4
	NOTE_REST
	NOTE_B4
	NOTE_REST
	NOTE_CSHARP5
	NOTE_REST
	NOTE_FSHARP5
	NOTE_REST
	LENGTH 2
	NOTE_E5
	NOTE_DSHARP5
	NOTE_CSHARP5
	NOTE_DSHARP5
	LENGTH 6
	NOTE_E5
	LENGTH 5
	NOTE_E5
	LENGTH 1
	LENGTH 2
	NOTE_E5
	NOTE_DSHARP5
	NOTE_B4
	NOTE_GSHARP4
	NOTE_C5
	LENGTH 5
	NOTE_CSHARP5
	LENGTH 1
	LENGTH 2
	NOTE_CSHARP5
	NOTE_B4
	NOTE_GSHARP4
	NOTE_E4
	NOTE_F4
	NOTE_FSHARP4
	NOTE_GSHARP4
	NOTE_A4
	NOTE_B4
	NOTE_CSHARP5
	NOTE_DSHARP5
	NOTE_E5
	NOTE_FSHARP5
	LENGTH 1
	NOTE_CSHARP5
	NOTE_REST
	NOTE_C5
	NOTE_REST
	NOTE_B4
	NOTE_REST
	NOTE_CSHARP5
	NOTE_REST
	LENGTH 6
	NOTE_B4
	LENGTH 5
	NOTE_E5
	LENGTH 1
	LENGTH 2
	NOTE_E5
	NOTE_DSHARP5
	NOTE_B4
	NOTE_GSHARP4
	NOTE_C5
	LENGTH 5
	NOTE_CSHARP5
	LENGTH 1
	LENGTH 2
	NOTE_CSHARP5
	NOTE_B4
	NOTE_GSHARP4
	LENGTH 4
	NOTE_E4
	LENGTH 5
	NOTE_FSHARP4
	LENGTH 1
	NOTE_GSHARP4
	NOTE_REST
	NOTE_A4
	NOTE_REST
	NOTE_B4
	NOTE_REST
	NOTE_CSHARP5
	NOTE_REST
	NOTE_FSHARP5
	NOTE_REST
	LENGTH 2
	NOTE_E5
	NOTE_DSHARP5
	NOTE_CSHARP5
	NOTE_DSHARP5
	LENGTH 6
	NOTE_E5
	LENGTH 1
	NOTE_A4
	NOTE_REST
	NOTE_CSHARP5
	NOTE_REST
	NOTE_E5
	NOTE_REST
	NOTE_A5
	NOTE_REST
	NOTE_GSHARP5
	NOTE_REST
	NOTE_FSHARP5
	NOTE_REST
	NOTE_E5
	NOTE_REST
	NOTE_DSHARP5
	NOTE_REST
	NOTE_B4
	NOTE_REST
	NOTE_DSHARP5
	NOTE_REST
	NOTE_FSHARP5
	NOTE_REST
	NOTE_B5
	NOTE_REST
	NOTE_A5
	NOTE_REST
	NOTE_GSHARP5
	NOTE_REST
	NOTE_FSHARP5
	NOTE_REST
	NOTE_E5
	NOTE_REST
	NOTE_A4
	NOTE_REST
	NOTE_CSHARP5
	NOTE_REST
	NOTE_E5
	NOTE_REST
	NOTE_A5
	NOTE_REST
	NOTE_GSHARP5
	NOTE_REST
	NOTE_FSHARP5
	NOTE_REST
	NOTE_E5
	NOTE_REST
	NOTE_DSHARP5
	NOTE_REST
	NOTE_B5
	NOTE_REST
	LENGTH 2
	NOTE_B3
	LENGTH 1
	NOTE_DSHARP5
	NOTE_REST
	LENGTH 2
	NOTE_B3
	LENGTH 1
	NOTE_FSHARP5
	NOTE_REST
	LENGTH 2
	NOTE_B3
	LENGTH 1
	LENGTH 2
	NOTE_GSHARP5
	NOTE_FSHARP5
	LOOP_END
  