bgm5:
	TEMPO 5
	LOOP_START
	UNK_EFFECT 4
	DUTY 1
	LENGTH 1
	EFFECT 4
	NOTE_G4
	NOTE_REST
	NOTE_REST
	NOTE_ASHARP4
	NOTE_REST
	NOTE_REST
	NOTE_A4
	NOTE_REST
	NOTE_REST
	NOTE_C5
	NOTE_REST
	NOTE_REST
	NOTE_ASHARP4
	NOTE_REST
	NOTE_REST
	NOTE_REST
	NOTE_REST
	NOTE_REST
	NOTE_REST
	NOTE_REST
	NOTE_REST
	NOTE_D5
	NOTE_REST
	NOTE_REST
	NOTE_G4
	NOTE_REST
	NOTE_REST
	NOTE_ASHARP4
	NOTE_REST
	NOTE_REST
	NOTE_A4
	NOTE_REST
	NOTE_REST
	NOTE_F4
	NOTE_REST
	NOTE_REST
	NOTE_G4
	NOTE_REST
	NOTE_REST
	NOTE_REST
	NOTE_REST
	NOTE_REST
	NOTE_F4
	NOTE_REST
	NOTE_REST
	NOTE_REST
	NOTE_ASHARP4
	NOTE_A4
	NOTE_G4
	NOTE_REST
	NOTE_REST
	NOTE_ASHARP4
	NOTE_REST
	NOTE_REST
	NOTE_A4
	NOTE_REST
	NOTE_REST
	NOTE_C5
	NOTE_REST
	NOTE_REST
	NOTE_ASHARP4
	NOTE_REST
	NOTE_REST
	NOTE_REST
	NOTE_REST
	NOTE_REST
	NOTE_D4
	NOTE_REST
	NOTE_REST
	NOTE_FSHARP4
	NOTE_REST
	NOTE_REST
	NOTE_G4
	NOTE_REST
	NOTE_REST
	NOTE_ASHARP4
	NOTE_REST
	NOTE_REST
	NOTE_A4
	NOTE_REST
	NOTE_REST
	NOTE_F4
	NOTE_REST
	NOTE_REST
	NOTE_G4
	NOTE_REST
	NOTE_REST
	NOTE_REST
	NOTE_REST
	NOTE_REST
	NOTE_REST
	NOTE_REST
	NOTE_REST
	NOTE_G4
	NOTE_A4
	NOTE_ASHARP4
	DUTY 3
	EFFECT 4
	LENGTH 5
	NOTE_F5
	LENGTH 1
	NOTE_E5
	NOTE_REST
	NOTE_REST
	NOTE_REST
	NOTE_REST
	NOTE_REST
	LENGTH 5
	NOTE_DSHARP5
	LENGTH 1
	NOTE_D5
	NOTE_REST
	NOTE_REST
	NOTE_REST
	NOTE_REST
	NOTE_REST
	NOTE_CSHARP5
	NOTE_D5
	NOTE_CSHARP5
	NOTE_D5
	NOTE_REST
	NOTE_REST
	NOTE_REST
	NOTE_REST
	NOTE_REST
	NOTE_REST
	NOTE_REST
	NOTE_REST
	NOTE_ASHARP4
	NOTE_A4
	NOTE_GSHARP4
	NOTE_G4
	NOTE_REST
	NOTE_REST
	NOTE_REST
	NOTE_REST
	NOTE_REST
	NOTE_REST
	NOTE_REST
	NOTE_REST
	NOTE_G4
	NOTE_A4
	NOTE_ASHARP4
	LENGTH 5
	NOTE_F5
	LENGTH 1
	NOTE_E5
	NOTE_REST
	NOTE_REST
	NOTE_REST
	NOTE_REST
	NOTE_REST
	LENGTH 5
	NOTE_DSHARP5
	LENGTH 1
	NOTE_D5
	NOTE_REST
	NOTE_REST
	NOTE_REST
	NOTE_REST
	NOTE_REST
	NOTE_CSHARP5
	NOTE_D5
	NOTE_CSHARP5
	NOTE_D5
	NOTE_REST
	NOTE_REST
	NOTE_REST
	NOTE_REST
	NOTE_REST
	NOTE_REST
	NOTE_REST
	NOTE_REST
	NOTE_ASHARP4
	NOTE_G4
	NOTE_FSHARP4
	NOTE_D5
	NOTE_F5
	NOTE_FSHARP5
	NOTE_G5
	NOTE_REST
	NOTE_REST
	NOTE_REST
	NOTE_REST
	NOTE_REST
	NOTE_G3
	NOTE_REST
	NOTE_REST
	NOTE_ASHARP3
	NOTE_REST
	NOTE_REST
	NOTE_A3
	NOTE_REST
	NOTE_REST
	NOTE_C4
	NOTE_REST
	NOTE_REST
	NOTE_ASHARP3
	NOTE_REST
	NOTE_REST
	NOTE_REST
	NOTE_REST
	NOTE_REST
	NOTE_REST
	NOTE_REST
	NOTE_REST
	LENGTH 3
	NOTE_D4
	LENGTH 1
	NOTE_G3
	NOTE_REST
	NOTE_REST
	NOTE_ASHARP3
	NOTE_REST
	NOTE_REST
	NOTE_A3
	NOTE_REST
	NOTE_REST
	NOTE_F3
	NOTE_REST
	NOTE_REST
	NOTE_G3
	NOTE_REST
	NOTE_REST
	NOTE_REST
	NOTE_REST
	NOTE_REST
	NOTE_REST
	NOTE_REST
	NOTE_REST
	NOTE_REST
	NOTE_ASHARP3
	NOTE_A3
	NOTE_G3
	NOTE_REST
	NOTE_REST
	NOTE_ASHARP3
	NOTE_REST
	NOTE_REST
	NOTE_A3
	NOTE_REST
	NOTE_REST
	NOTE_C4
	NOTE_REST
	NOTE_REST
	NOTE_ASHARP3
	NOTE_REST
	NOTE_REST
	NOTE_REST
	NOTE_REST
	NOTE_REST
	LENGTH 3
	NOTE_D3
	NOTE_FSHARP3
	LENGTH 1
	NOTE_G3
	NOTE_REST
	NOTE_REST
	NOTE_ASHARP3
	NOTE_REST
	NOTE_REST
	NOTE_A3
	NOTE_REST
	NOTE_REST
	NOTE_F3
	NOTE_REST
	NOTE_REST
	NOTE_G3
	NOTE_REST
	NOTE_REST
	NOTE_REST
	NOTE_REST
	NOTE_REST
	NOTE_REST
	NOTE_REST
	NOTE_REST
	NOTE_G3
	NOTE_A3
	NOTE_ASHARP3
	LENGTH 5
	NOTE_F4
	LENGTH 1
	NOTE_E4
	NOTE_REST
	NOTE_REST
	NOTE_REST
	NOTE_REST
	NOTE_REST
	LENGTH 5
	NOTE_DSHARP4
	LENGTH 1
	NOTE_D4
	NOTE_REST
	NOTE_REST
	NOTE_REST
	NOTE_REST
	NOTE_REST
	NOTE_CSHARP4
	NOTE_D4
	NOTE_CSHARP4
	NOTE_D4
	NOTE_REST
	NOTE_REST
	NOTE_REST
	NOTE_REST
	NOTE_REST
	NOTE_REST
	NOTE_REST
	NOTE_REST
	NOTE_ASHARP3
	NOTE_A3
	NOTE_GSHARP3
	NOTE_G3
	NOTE_REST
	NOTE_REST
	NOTE_REST
	NOTE_REST
	NOTE_REST
	NOTE_REST
	NOTE_REST
	NOTE_REST
	NOTE_G3
	NOTE_A3
	NOTE_ASHARP3
	LENGTH 5
	NOTE_F4
	LENGTH 1
	NOTE_E4
	NOTE_REST
	NOTE_REST
	NOTE_REST
	NOTE_REST
	NOTE_REST
	LENGTH 5
	NOTE_DSHARP4
	LENGTH 1
	NOTE_D4
	NOTE_REST
	NOTE_REST
	NOTE_REST
	NOTE_REST
	NOTE_REST
	NOTE_CSHARP4
	NOTE_D4
	NOTE_CSHARP4
	NOTE_D4
	NOTE_REST
	NOTE_REST
	NOTE_REST
	NOTE_REST
	NOTE_REST
	NOTE_REST
	NOTE_REST
	NOTE_REST
	NOTE_ASHARP3
	NOTE_G3
	NOTE_FSHARP3
	NOTE_D4
	NOTE_F4
	NOTE_FSHARP4
	NOTE_G4
	NOTE_REST
	NOTE_REST
	NOTE_REST
	NOTE_REST
	NOTE_REST
	LOOP_END
