bgm9:
	TEMPO 5
	LOOP_START
	UNK_EFFECT 4
	DUTY 0
	EFFECT 4
	LENGTH 4
	NOTE_FSHARP5
	LENGTH 2
	NOTE_D5
	NOTE_A4
	LENGTH 4
	NOTE_FSHARP5
	LENGTH 4
	NOTE_E5
	LENGTH 2
	NOTE_CSHARP5
	NOTE_A4
	LENGTH 4
	NOTE_E5
	LENGTH 4
	NOTE_D5
	LENGTH 2
	NOTE_B4
	NOTE_G4
	LENGTH 4
	NOTE_D5
	NOTE_CSHARP5
	NOTE_D5
	NOTE_E5
	LENGTH 4
	NOTE_FSHARP5
	LENGTH 2
	NOTE_D5
	NOTE_A4
	LENGTH 4
	NOTE_FSHARP5
	LENGTH 4
	NOTE_E5
	LENGTH 2
	NOTE_CSHARP5
	NOTE_A4
	LENGTH 4
	NOTE_E5
	LENGTH 2
	NOTE_G4
	NOTE_ASHARP4
	NOTE_D5
	NOTE_G5
	NOTE_A5
	NOTE_G5
	LENGTH 7
	NOTE_FSHARP5
	DUTY 1
	LENGTH 4
	NOTE_FSHARP5
	LENGTH 2
	NOTE_D5
	NOTE_A4
	LENGTH 4
	NOTE_FSHARP5
	LENGTH 4
	NOTE_E5
	LENGTH 2
	NOTE_CSHARP5
	NOTE_A4
	LENGTH 4
	NOTE_E5
	LENGTH 4
	NOTE_D5
	LENGTH 2
	NOTE_B4
	NOTE_G4
	LENGTH 4
	NOTE_D5
	NOTE_CSHARP5
	NOTE_D5
	NOTE_E5
	LENGTH 4
	NOTE_FSHARP5
	LENGTH 2
	NOTE_D5
	NOTE_A4
	LENGTH 4
	NOTE_FSHARP5
	LENGTH 4
	NOTE_E5
	LENGTH 2
	NOTE_CSHARP5
	NOTE_A4
	LENGTH 4
	NOTE_E5
	LENGTH 2
	NOTE_G4
	NOTE_ASHARP4
	NOTE_D5
	NOTE_ASHARP4
	LENGTH 4
	NOTE_E5
	LENGTH 7
	NOTE_D5
	DUTY 2
	LENGTH 2
	NOTE_B4
	NOTE_D5
	NOTE_G5
	NOTE_FSHARP5
	LENGTH 4
	NOTE_B5
	LENGTH 7
	NOTE_A5
	LENGTH 2
	NOTE_A4
	NOTE_CSHARP5
	NOTE_E5
	NOTE_A4
	LENGTH 4
	NOTE_G5
	LENGTH 7
	NOTE_FSHARP5
	DUTY 3
	LENGTH 2
	NOTE_E5
	NOTE_FSHARP5
	NOTE_G5
	NOTE_E5
	NOTE_CSHARP5
	NOTE_B4
	NOTE_A4
	NOTE_B4
	NOTE_CSHARP5
	NOTE_B4
	NOTE_A4
	NOTE_G4
	DUTY 1
	NOTE_A4
	NOTE_B4
	NOTE_CSHARP5
	NOTE_D5
	NOTE_E5
	NOTE_FSHARP5
	DUTY 0
	NOTE_G5
	NOTE_A5
	NOTE_B5
	NOTE_CSHARP6
	LENGTH 8
	NOTE_E6
	LOOP_END
  