	TEMPO 3
	LOOP_START
	UNK_EFFECT 4
	DUTY 1
	LENGTH 1
	EFFECT 8
	NOTE_A5
	NOTE_REST
	NOTE_A5
	NOTE_REST
	NOTE_A5
	NOTE_REST
	NOTE_A5
	NOTE_REST
	NOTE_A5
	NOTE_REST
	DUTY 3
	NOTE_E3
	NOTE_F3
	NOTE_FSHARP3
	NOTE_A3
	NOTE_REST
	NOTE_REST
	DUTY 1
	NOTE_FSHARP5
	NOTE_REST
	NOTE_FSHARP5
	NOTE_REST
	NOTE_FSHARP5
	NOTE_REST
	NOTE_FSHARP5
	NOTE_REST
	NOTE_FSHARP5
	NOTE_REST
	DUTY 3
	NOTE_CSHARP3
	NOTE_E3
	NOTE_FSHARP3
	NOTE_F3
	NOTE_REST
	NOTE_REST
	DUTY 0
	NOTE_A5
	NOTE_REST
	NOTE_FSHARP5
	NOTE_REST
	NOTE_A5
	NOTE_B5
	NOTE_REST
	LENGTH 2
	NOTE_C6
	LENGTH 1
	NOTE_C6
	NOTE_B5
	NOTE_REST
	NOTE_A5
	NOTE_REST
	NOTE_FSHARP5
	NOTE_REST
	NOTE_CSHARP6
	NOTE_D6
	NOTE_REST
	NOTE_DSHARP6
	NOTE_REST
	NOTE_E6
	NOTE_REST
	NOTE_FSHARP6
	NOTE_E6
	NOTE_REST
	DUTY 1
	NOTE_E5
	NOTE_REST
	DUTY 2
	NOTE_E4
	NOTE_REST
	DUTY 3
	NOTE_E3
	NOTE_REST
	DUTY 3
	NOTE_A3
	NOTE_REST
	NOTE_CSHARP4
	NOTE_REST
	NOTE_E4
	NOTE_REST
	NOTE_A3
	NOTE_CSHARP4
	NOTE_REST
	NOTE_E4
	NOTE_REST
	NOTE_A3
	NOTE_CSHARP4
	NOTE_REST
	NOTE_E4
	NOTE_REST
	NOTE_B3
	NOTE_REST
	NOTE_D4
	NOTE_REST
	NOTE_FSHARP4
	NOTE_REST
	NOTE_B3
	NOTE_D4
	NOTE_REST
	NOTE_FSHARP4
	NOTE_REST
	NOTE_B3
	NOTE_D4
	NOTE_REST
	NOTE_FSHARP4
	NOTE_REST
	NOTE_A3
	NOTE_REST
	NOTE_CSHARP4
	NOTE_REST
	NOTE_E4
	NOTE_REST
	NOTE_A3
	NOTE_CSHARP4
	NOTE_REST
	NOTE_E4
	NOTE_REST
	NOTE_A3
	NOTE_CSHARP4
	NOTE_REST
	NOTE_E4
	NOTE_REST
	NOTE_B3
	NOTE_REST
	NOTE_D4
	NOTE_REST
	NOTE_FSHARP4
	NOTE_REST
	NOTE_B3
	NOTE_D4
	NOTE_REST
	NOTE_FSHARP4
	NOTE_REST
	NOTE_B3
	NOTE_D4
	NOTE_REST
	NOTE_FSHARP4
	NOTE_REST
	DUTY 0
	NOTE_A4
	NOTE_REST
	NOTE_CSHARP5
	NOTE_REST
	NOTE_E5
	NOTE_REST
	NOTE_A4
	NOTE_CSHARP5
	NOTE_REST
	NOTE_E5
	NOTE_REST
	NOTE_A4
	NOTE_CSHARP5
	NOTE_REST
	NOTE_E5
	NOTE_REST
	NOTE_B4
	NOTE_REST
	NOTE_D5
	NOTE_REST
	NOTE_FSHARP5
	NOTE_REST
	NOTE_B4
	NOTE_D5
	NOTE_REST
	NOTE_FSHARP5
	NOTE_REST
	NOTE_B4
	NOTE_D5
	NOTE_REST
	NOTE_FSHARP5
	NOTE_REST
	DUTY 3
	NOTE_A4
	NOTE_REST
	NOTE_CSHARP5
	NOTE_REST
	NOTE_E5
	NOTE_REST
	NOTE_A4
	NOTE_CSHARP5
	NOTE_REST
	NOTE_E5
	NOTE_REST
	NOTE_A4
	NOTE_C5
	NOTE_REST
	NOTE_B4
	NOTE_REST
	NOTE_A3
	NOTE_A3
	NOTE_A3
	NOTE_A3
	NOTE_REST
	NOTE_REST
	NOTE_REST
	NOTE_REST
	NOTE_A3
	NOTE_A3
	NOTE_A3
	NOTE_A3
	NOTE_REST
	NOTE_REST
	NOTE_REST
	NOTE_REST
	LOOP_END
